<!DOCTYPE svg PUBLIC "-//W3C//DTD SVG 1.1//EN" "http://www.w3.org/Graphics/SVG/1.1/DTD/svg11.dtd">
<!-- Uploaded to: SVG Repo, www.svgrepo.com, Transformed by: SVG Repo Mixer Tools -->
<svg fill="#000000" height="800px" width="800px" version="1.1" id="Layer_1" xmlns="http://www.w3.org/2000/svg" xmlns:xlink="http://www.w3.org/1999/xlink" viewBox="0 0 489.104 489.104" xml:space="preserve">
<g id="SVGRepo_bgCarrier" stroke-width="0"/>
<g id="SVGRepo_tracerCarrier" stroke-linecap="round" stroke-linejoin="round"/>
<g id="SVGRepo_iconCarrier"> <g> <path d="M411.55,100.9l-94.7-94.7c-4.2-4.2-9.4-6.2-14.6-6.2H92.15c-11.4,0-20.8,9.4-20.8,20.8v330.8c0,11.4,9.4,20.8,20.8,20.8 h132.1V421l-16.6-15.2c-8.3-7.3-21.8-7.3-29.1,1s-7.3,21.8,1,29.1l52,47.9c3.1,3.1,14.6,10.2,29.1,0l52-47.9 c8.3-8.3,8.3-20.8,1-29.1c-8.3-8.3-20.8-8.3-29.1-1l-18.7,17.2v-50.5h132.1c11.4,0,19.8-9.4,19.8-19.8V115.5 C417.85,110.3,415.75,105.1,411.55,100.9z M324.15,70.4l39.3,38.9h-39.3V70.4z M265.95,331.9v-130c0-11.4-9.4-20.8-20.8-20.8 c-11.4,0-20.8,9.4-20.8,20.8v130h-111.3V41.6h169.6v86.3c0,11.4,9.4,20.8,20.8,20.8h74.9v183.1h-112.4V331.9z"/> </g> </g>
</svg>