<svg xmlns="http://www.w3.org/2000/svg" xmlns:xlink="http://www.w3.org/1999/xlink" width="42" height="42" viewBox="0 0 42 42">
  <defs>
    <clipPath id="clip-path">
      <rect id="Rectangle_25" data-name="Rectangle 25" width="23.06" height="24.033" fill="none"/>
    </clipPath>
  </defs>
  <g id="Group_52" data-name="Group 52" transform="translate(-49 -1734)">
    <circle id="Ellipse_1" data-name="Ellipse 1" cx="21" cy="21" r="21" transform="translate(49 1734)" fill="#50991f"/>
    <g id="Group_34" data-name="Group 34" transform="translate(57.586 1741.808)">
      <g id="Group_17" data-name="Group 17" clip-path="url(#clip-path)">
        <path id="Path_18" data-name="Path 18" d="M8.145,15.691a.029.029,0,0,1-.049,0,45.556,45.556,0,0,0-3.868-4.741,2.443,2.443,0,0,0-3.77.244h0a2.442,2.442,0,0,0,.121,3,48.93,48.93,0,0,1,5.829,8.916A1.7,1.7,0,0,0,9.5,22.963,75.928,75.928,0,0,1,22.788,1.751a1.046,1.046,0,0,0-1.456-1.5A63.384,63.384,0,0,0,8.145,15.691" transform="translate(0 0.001)" fill="#fff"/>
      </g>
    </g>
  </g>
</svg>
